<svg id="petition" enable-background="new 0 0 300 300" height="512" viewBox="0 0 300 300" width="512" xmlns="http://www.w3.org/2000/svg"><circle cx="176.436" cy="116" fill="#efefd2" r="90"/><path d="m258.666 45.883c-1.023 0-2.047-.391-2.828-1.172-1.562-1.562-1.562-4.096 0-5.656l6.779-6.777c1.562-1.562 4.094-1.562 5.656 0s1.562 4.096 0 5.656l-6.779 6.777c-.781.781-1.805 1.172-2.828 1.172z" fill="#4c241d"/><path d="m242.85 61.701c-1.023 0-2.047-.391-2.828-1.172-1.562-1.562-1.562-4.094 0-5.656l6.779-6.779c1.562-1.562 4.094-1.562 5.656 0s1.562 4.094 0 5.656l-6.779 6.779c-.782.782-1.805 1.172-2.828 1.172z" fill="#4c241d"/><path d="m248.877 45.133c-1.023 0-2.047-.391-2.828-1.172l-6.832-6.834c-1.562-1.562-1.562-4.096 0-5.656 1.562-1.562 4.094-1.562 5.656 0l6.832 6.834c1.562 1.562 1.562 4.096 0 5.656-.781.781-1.805 1.172-2.828 1.172z" fill="#4c241d"/><path d="m265.445 61.701c-1.023 0-2.047-.391-2.828-1.172l-6.779-6.779c-1.562-1.562-1.562-4.094 0-5.656s4.094-1.562 5.656 0l6.779 6.779c1.562 1.562 1.562 4.094 0 5.656-.781.782-1.804 1.172-2.828 1.172z" fill="#4c241d"/><path d="m60.292 54-25.737 25.714v190.286h144.127v-216z" fill="#fff"/><path d="m178.682 274h-144.127c-2.209 0-4-1.791-4-4v-190.285c0-1.061.422-2.08 1.172-2.83l25.736-25.715c.75-.748 1.768-1.17 2.828-1.17h118.391c2.209 0 4 1.791 4 4v216c0 2.209-1.791 4-4 4zm-140.127-8h136.127v-208h-112.735l-23.392 23.373z" fill="#4c241d"/><path d="m62.435 81.545v-25.737l-27.881 25.737z" fill="#fff"/><g fill="#4c241d"><path d="m62.436 85.545h-27.881c-1.646 0-3.125-1.01-3.725-2.543-.6-1.535-.199-3.279 1.012-4.396l27.881-25.736c1.17-1.076 2.867-1.359 4.316-.725 1.457.637 2.396 2.076 2.396 3.664v25.736c.001 2.209-1.79 4-3.999 4zm-17.651-8h13.65v-12.6z"/><path d="m90.436 146h-32c-2.209 0-4-1.791-4-4v-32c0-2.209 1.791-4 4-4h32c2.209 0 4 1.791 4 4v32c0 2.209-1.791 4-4 4zm-28-8h24v-24h-24z"/><path d="m136.443 121.578h-27.252c-2.209 0-4-1.791-4-4s1.791-4 4-4h27.252c2.209 0 4 1.791 4 4s-1.791 4-4 4z"/><path d="m154.436 138h-44c-2.209 0-4-1.791-4-4s1.791-4 4-4h44c2.209 0 4 1.791 4 4s-1.791 4-4 4z"/><path d="m90.436 198h-32c-2.209 0-4-1.791-4-4v-32c0-2.209 1.791-4 4-4h32c2.209 0 4 1.791 4 4v32c0 2.209-1.791 4-4 4zm-28-8h24v-24h-24z"/><path d="m136.443 173.578h-27.252c-2.209 0-4-1.791-4-4s1.791-4 4-4h27.252c2.209 0 4 1.791 4 4s-1.791 4-4 4z"/><path d="m154.436 190h-44c-2.209 0-4-1.791-4-4s1.791-4 4-4h44c2.209 0 4 1.791 4 4s-1.791 4-4 4z"/><path d="m90.436 254h-32c-2.209 0-4-1.791-4-4v-32c0-2.209 1.791-4 4-4h32c2.209 0 4 1.791 4 4v32c0 2.209-1.791 4-4 4zm-28-8h24v-24h-24z"/><path d="m136.443 229.578h-27.252c-2.209 0-4-1.791-4-4s1.791-4 4-4h27.252c2.209 0 4 1.791 4 4s-1.791 4-4 4z"/><path d="m154.436 246h-44c-2.209 0-4-1.791-4-4s1.791-4 4-4h44c2.209 0 4 1.791 4 4s-1.791 4-4 4z"/></g><path d="m226.436 66c0-8.837-7.163-16-16-16s-16 7.163-16 16v4h32z" fill="#ffded5"/><path d="m226.436 74h-32c-2.209 0-4-1.791-4-4v-4c0-11.027 8.973-20 20-20s20 8.973 20 20v4c0 2.209-1.791 4-4 4zm-28-8h24c0-6.617-5.383-12-12-12s-12 5.383-12 12z" fill="#4c241d"/><path d="m194.436 70h32v160h-32z" fill="#ffce56"/><path d="m226.436 234h-32c-2.209 0-4-1.791-4-4v-160c0-2.209 1.791-4 4-4h32c2.209 0 4 1.791 4 4v160c0 2.209-1.791 4-4 4zm-28-8h24v-152h-24z" fill="#4c241d"/><path d="m214.436 146c-2.209 0-4-1.791-4-4v-72c0-2.209 1.791-4 4-4s4 1.791 4 4v72c0 2.209-1.791 4-4 4z" fill="#4c241d"/><path d="m78.436 190c-1.023 0-2.047-.391-2.828-1.172l-8.002-8c-1.562-1.561-1.562-4.094 0-5.656s4.094-1.562 5.656 0l5.174 5.172 17.172-17.172c1.562-1.562 4.094-1.562 5.656 0s1.562 4.094 0 5.656l-20 20c-.782.781-1.805 1.172-2.828 1.172z" fill="#a9ba5a"/><path d="m226.436 230h-32l6.399 16h19.201z" fill="#e7d1c4"/><path d="m220.035 250h-19.199c-1.635 0-3.105-.996-3.715-2.514l-6.4-16c-.492-1.232-.342-2.629.402-3.729s1.984-1.758 3.312-1.758h32c1.328 0 2.568.658 3.312 1.758s.895 2.496.402 3.729l-6.4 16c-.608 1.518-2.079 2.514-3.714 2.514zm-16.49-8h13.781l3.201-8h-20.184z" fill="#4c241d"/><path d="m220.036 246h-19.201l9.601 24z" fill="#6b4f5b"/><path d="m210.436 274c-1.635 0-3.107-.996-3.715-2.514l-9.6-24c-.492-1.232-.342-2.629.402-3.729s1.984-1.758 3.312-1.758h19.199c1.328 0 2.568.658 3.312 1.758s.895 2.496.402 3.729l-9.6 24c-.605 1.518-2.078 2.514-3.712 2.514zm-3.692-24 3.691 9.229 3.691-9.229z" fill="#4c241d"/></svg>