<svg height="409pt" viewBox="-3 0 409 409.6" width="409pt" xmlns="http://www.w3.org/2000/svg"><path d="m355.285156 208.214844c0 84.828125-68.765625 153.597656-153.597656 153.597656s-153.601562-68.769531-153.601562-153.597656c0-84.832032 68.769531-153.601563 153.601562-153.601563s153.597656 68.769531 153.597656 153.601563zm0 0" fill="#ffe8dc"/><path d="m209.089844 402.773438h-171.816406c-16.652344 0-30.148438-13.496094-30.148438-30.144532v-294.699218c0-16.648438 13.496094-30.144532 30.148438-30.144532h171.816406c16.648437 0 30.144531 13.496094 30.144531 30.144532v294.699218c0 16.648438-13.496094 30.144532-30.144531 30.144532zm0 0" fill="#fff"/><path d="m209.089844 409.601562h-171.820313c-20.386719 0-36.96875-16.589843-36.96875-36.976562v-294.691406c0-20.386719 16.582031-36.972656 36.96875-36.972656h171.820313c20.386718 0 36.96875 16.585937 36.96875 36.972656v294.691406c0 20.386719-16.582032 36.976562-36.96875 36.976562zm-171.820313-354.988281c-12.855469 0-23.316406 10.460938-23.316406 23.320313v294.691406c0 12.863281 10.460937 23.320312 23.316406 23.320312h171.820313c12.855468 0 23.316406-10.457031 23.316406-23.320312v-294.691406c0-12.859375-10.460938-23.320313-23.316406-23.320313zm0 0" fill="#4c241d"/><path d="m194.773438 184.320312h-143.1875c-5.703126 0-10.324219-4.625-10.324219-10.324218v-81.75c0-5.703125 4.621093-10.324219 10.324219-10.324219h143.191406c5.699218 0 10.324218 4.621094 10.324218 10.324219v81.75c0 5.699218-4.625 10.324218-10.328124 10.324218zm0 0" fill="#bd53b5"/><path d="m194.777344 191.148438h-143.195313c-9.453125 0-17.148437-7.695313-17.148437-17.15625v-81.746094c0-9.460938 7.695312-17.152344 17.148437-17.152344h143.195313c9.457031 0 17.148437 7.691406 17.148437 17.152344v81.746094c0 9.460937-7.691406 17.15625-17.148437 17.15625zm-143.195313-102.402344c-1.925781 0-3.496093 1.574218-3.496093 3.5v81.746094c0 1.925781 1.570312 3.5 3.496093 3.5h143.195313c1.925781 0 3.496094-1.574219 3.496094-3.5v-81.746094c0-1.925782-1.570313-3.5-3.496094-3.5zm0 0" fill="#4c241d"/><path d="m200.789062 293.546875c0 42.859375-34.746093 77.605469-77.609374 77.605469-42.859376 0-77.605469-34.746094-77.605469-77.605469 0-42.863281 34.746093-77.609375 77.605469-77.609375 42.863281 0 77.609374 34.746094 77.609374 77.609375zm0 0" fill="#fc8c29"/><path d="m123.179688 377.980469c-46.554688 0-84.433594-37.871094-84.433594-84.433594s37.878906-84.433594 84.433594-84.433594c46.554687 0 84.433593 37.871094 84.433593 84.433594s-37.878906 84.433594-84.433593 84.433594zm0-155.214844c-39.027344 0-70.78125 31.753906-70.78125 70.78125s31.753906 70.78125 70.78125 70.78125c39.027343 0 70.78125-31.753906 70.78125-70.78125s-31.753907-70.78125-70.78125-70.78125zm0 0" fill="#4c241d"/><path d="m147.574219 293.546875c0 13.472656-10.921875 24.394531-24.394531 24.394531-13.472657 0-24.394532-10.921875-24.394532-24.394531s10.921875-24.394531 24.394532-24.394531c13.472656 0 24.394531 10.921875 24.394531 24.394531zm0 0" fill="#ffce56"/><g fill="#4c241d"><path d="m123.179688 324.765625c-17.214844 0-31.21875-14.003906-31.21875-31.21875s14.003906-31.21875 31.21875-31.21875c17.214843 0 31.21875 14.003906 31.21875 31.21875s-14.003907 31.21875-31.21875 31.21875zm0-48.785156c-9.6875 0-17.566407 7.878906-17.566407 17.566406s7.878907 17.566406 17.566407 17.566406 17.566406-7.878906 17.566406-17.566406-7.878906-17.566406-17.566406-17.566406zm0 0"/><path d="m341.632812 375.464844h-96.175781c-3.769531 0-6.828125-3.050782-6.828125-6.824219s3.058594-6.828125 6.828125-6.828125h96.175781c3.769532 0 6.828126 3.054688 6.828126 6.828125s-3.058594 6.824219-6.828126 6.824219zm0 0"/><path d="m240.308594 312.921875c-2.40625 0-4.738282-1.273437-5.984375-3.527344-1.824219-3.300781-.625-7.453125 2.675781-9.273437 18.21875-10.066406 29.539062-29.234375 29.539062-50.027344v-207.425781c0-16-13.015624-29.015625-29.011718-29.015625s-29.015625 13.015625-29.015625 29.015625v2.84375c0 3.773437-3.054688 6.828125-6.824219 6.828125s-6.828125-3.054688-6.828125-6.828125v-2.84375c0-23.527344 19.140625-42.667969 42.667969-42.667969s42.664062 19.140625 42.664062 42.667969v207.425781c0 25.761719-14.019531 49.511719-36.589844 61.972656-1.046874.578125-2.179687.855469-3.292968.855469zm0 0"/><path d="m123.007812 354.988281c-3.773437 0-6.828124-3.054687-6.828124-6.828125v-6.445312c0-3.773438 3.054687-6.828125 6.828124-6.828125 3.769532 0 6.824219 3.054687 6.824219 6.828125v6.445312c0 3.773438-3.054687 6.828125-6.824219 6.828125zm0 0"/><path d="m123.007812 252.585938c-3.773437 0-6.828124-3.050782-6.828124-6.824219v-6.449219c0-3.773438 3.054687-6.824219 6.828124-6.824219 3.769532 0 6.824219 3.050781 6.824219 6.824219v6.449219c0 3.773437-3.054687 6.824219-6.824219 6.824219zm0 0"/><path d="m177.429688 300.566406h-6.445313c-3.769531 0-6.828125-3.054687-6.828125-6.828125 0-3.773437 3.058594-6.824219 6.828125-6.824219h6.445313c3.769531 0 6.828124 3.050782 6.828124 6.824219 0 3.773438-3.058593 6.828125-6.828124 6.828125zm0 0"/><path d="m75.03125 300.566406h-6.449219c-3.769531 0-6.824219-3.054687-6.824219-6.828125 0-3.773437 3.054688-6.824219 6.824219-6.824219h6.449219c3.769531 0 6.824219 3.050782 6.824219 6.824219 0 3.773438-3.054688 6.828125-6.824219 6.828125zm0 0"/></g><path d="m375.765625 327.679688h-27.304687v4.898437c13.652343 29.234375-47.789063 36.0625-47.789063 36.0625h43.890625c17.234375 0 31.203125-13.972656 31.203125-31.207031zm0 0" fill="#fc8c29"/><path d="m344.5625 375.464844h-43.890625c-3.621094 0-6.613281-2.824219-6.8125-6.445313-.203125-3.613281 2.457031-6.757812 6.058594-7.164062 13.605469-1.527344 37.214843-7.546875 42.632812-17.214844.9375-1.671875 1.929688-4.445313-.277343-9.171875-.421876-.902344-.640626-1.886719-.640626-2.886719v-4.902343c0-3.773438 3.058594-6.828126 6.828126-6.828126h27.304687c3.769531 0 6.828125 3.054688 6.828125 6.828126v9.753906c0 20.972656-17.058594 38.03125-38.03125 38.03125zm-.410156-13.652344h.410156c13.441406 0 24.378906-10.9375 24.378906-24.378906v-2.925782h-12.523437c1.964843 7.296876.152343 13.050782-1.96875 16.824219-2.324219 4.140625-5.96875 7.59375-10.296875 10.480469zm0 0" fill="#4c241d"/><path d="m327.980469 317.441406c0-9.425781 7.640625-17.066406 17.066406-17.066406h34.132813c9.425781 0 17.066406 7.640625 17.066406 17.066406 0 9.425782-7.640625 17.066406-17.066406 17.066406h-34.132813c-9.425781 0-17.066406-7.640624-17.066406-17.066406zm0 0" fill="#ffce56"/><path d="m379.179688 341.332031h-34.132813c-13.175781 0-23.894531-10.71875-23.894531-23.890625 0-13.175781 10.71875-23.894531 23.894531-23.894531h34.132813c13.175781 0 23.894531 10.71875 23.894531 23.894531 0 13.171875-10.71875 23.890625-23.894531 23.890625zm-34.132813-34.132812c-5.648437 0-10.238281 4.59375-10.238281 10.242187 0 5.644532 4.589844 10.238282 10.238281 10.238282h34.132813c5.648437 0 10.242187-4.59375 10.242187-10.238282 0-5.648437-4.59375-10.242187-10.242187-10.242187zm0 0" fill="#4c241d"/></svg>