<svg height="409pt" viewBox="-3 0 409 409.6" width="409pt" xmlns="http://www.w3.org/2000/svg"><path d="M355.285 208.215c0 84.828-68.765 153.597-153.598 153.597S48.086 293.043 48.086 208.215c0-84.832 68.77-153.602 153.601-153.602s153.598 68.77 153.598 153.602zm0 0" fill="#ffe8dc"/><path d="M209.09 402.773H37.273c-16.652 0-30.148-13.496-30.148-30.144v-294.7c0-16.648 13.496-30.144 30.148-30.144H209.09c16.648 0 30.144 13.496 30.144 30.145v294.699c0 16.648-13.496 30.144-30.144 30.144zm0 0" fill="#fff"/><path d="M209.09 409.602H37.27c-20.387 0-36.97-16.59-36.97-36.977V77.934C.3 57.547 16.884 40.96 37.27 40.96h171.82c20.387 0 36.969 16.586 36.969 36.973v294.691c0 20.387-16.582 36.977-36.97 36.977zM37.27 54.613c-12.856 0-23.317 10.461-23.317 23.32v294.692c0 12.863 10.461 23.32 23.317 23.32h171.82c12.855 0 23.316-10.457 23.316-23.32V77.934c0-12.86-10.46-23.32-23.316-23.32zm0 0" fill="#4c241d"/><path d="M194.773 184.32H51.586c-5.703 0-10.324-4.625-10.324-10.324v-81.75c0-5.703 4.62-10.324 10.324-10.324h143.191c5.7 0 10.325 4.621 10.325 10.324v81.75c0 5.7-4.625 10.324-10.329 10.324zm0 0" fill="#bd53b5"/><path d="M194.777 191.148H51.582c-9.453 0-17.148-7.695-17.148-17.156V92.246c0-9.46 7.695-17.152 17.148-17.152h143.195c9.457 0 17.149 7.691 17.149 17.152v81.746c0 9.461-7.692 17.156-17.149 17.156zM51.582 88.746a3.506 3.506 0 00-3.496 3.5v81.746c0 1.926 1.57 3.5 3.496 3.5h143.195a3.506 3.506 0 003.496-3.5V92.246c0-1.926-1.57-3.5-3.496-3.5zm0 0" fill="#4c241d"/><path d="M200.79 293.547c0 42.86-34.747 77.605-77.61 77.605-42.86 0-77.606-34.746-77.606-77.605 0-42.863 34.746-77.61 77.606-77.61 42.863 0 77.61 34.747 77.61 77.61zm0 0" fill="#fc8c29"/><path d="M123.18 377.98c-46.555 0-84.434-37.87-84.434-84.433s37.879-84.434 84.434-84.434c46.554 0 84.433 37.871 84.433 84.434s-37.879 84.433-84.433 84.433zm0-155.214c-39.028 0-70.782 31.754-70.782 70.78s31.754 70.782 70.782 70.782c39.027 0 70.78-31.754 70.78-70.781s-31.753-70.781-70.78-70.781zm0 0" fill="#4c241d"/><path d="M147.574 293.547c0 13.473-10.922 24.394-24.394 24.394-13.473 0-24.395-10.921-24.395-24.394s10.922-24.395 24.395-24.395c13.472 0 24.394 10.922 24.394 24.395zm0 0" fill="#ffce56"/><g fill="#4c241d"><path d="M123.18 324.766c-17.215 0-31.22-14.004-31.22-31.22s14.005-31.218 31.22-31.218c17.215 0 31.218 14.004 31.218 31.219s-14.003 31.219-31.218 31.219zm0-48.786c-9.688 0-17.567 7.88-17.567 17.567s7.88 17.566 17.567 17.566 17.566-7.879 17.566-17.566-7.879-17.567-17.566-17.567zm0 0M341.633 375.465h-96.176a6.827 6.827 0 110-13.652h96.176c3.77 0 6.828 3.054 6.828 6.828s-3.059 6.824-6.828 6.824zm0 0M240.309 312.922a6.829 6.829 0 01-5.985-3.527A6.821 6.821 0 01237 300.12c18.219-10.066 29.54-29.234 29.54-50.027V42.668c0-16-13.017-29.016-29.013-29.016s-29.015 13.016-29.015 29.016v2.844a6.827 6.827 0 11-13.652 0v-2.844C194.86 19.141 214 0 237.526 0s42.664 19.14 42.664 42.668v207.426c0 25.761-14.02 49.511-36.59 61.972a6.802 6.802 0 01-3.292.856zm0 0M123.008 354.988a6.825 6.825 0 01-6.828-6.828v-6.445a6.825 6.825 0 016.828-6.828 6.824 6.824 0 016.824 6.828v6.445a6.824 6.824 0 01-6.824 6.828zm0 0M123.008 252.586a6.822 6.822 0 01-6.828-6.824v-6.45a6.822 6.822 0 016.828-6.824 6.82 6.82 0 016.824 6.825v6.449a6.82 6.82 0 01-6.824 6.824zm0 0M177.43 300.566h-6.446a6.828 6.828 0 01-6.828-6.828 6.824 6.824 0 016.828-6.824h6.446c3.77 0 6.828 3.05 6.828 6.824a6.828 6.828 0 01-6.828 6.828zm0 0M75.031 300.566h-6.449a6.824 6.824 0 01-6.824-6.828 6.82 6.82 0 016.824-6.824h6.45a6.82 6.82 0 016.823 6.824 6.824 6.824 0 01-6.824 6.828zm0 0"/></g><path d="M375.766 327.68H348.46v4.898c13.652 29.235-47.79 36.063-47.79 36.063h43.892c17.234 0 31.203-13.973 31.203-31.207zm0 0" fill="#fc8c29"/><path d="M344.563 375.465h-43.891a6.819 6.819 0 01-6.813-6.445 6.83 6.83 0 016.059-7.165c13.605-1.527 37.215-7.546 42.633-17.214.937-1.672 1.93-4.446-.278-9.172a6.812 6.812 0 01-.64-2.887v-4.902a6.828 6.828 0 016.828-6.828h27.305a6.828 6.828 0 016.828 6.828v9.754c0 20.972-17.059 38.03-38.031 38.03zm-.41-13.652h.41c13.44 0 24.378-10.938 24.378-24.38v-2.925h-12.523c1.965 7.297.152 13.05-1.969 16.824-2.324 4.14-5.969 7.594-10.297 10.48zm0 0" fill="#4c241d"/><path d="M327.98 317.441c0-9.425 7.641-17.066 17.067-17.066h34.133c9.425 0 17.066 7.64 17.066 17.066 0 9.426-7.64 17.067-17.066 17.067h-34.133c-9.426 0-17.067-7.64-17.067-17.067zm0 0" fill="#ffce56"/><path d="M379.18 341.332h-34.133c-13.176 0-23.895-10.719-23.895-23.89 0-13.176 10.72-23.895 23.895-23.895h34.133c13.175 0 23.894 10.719 23.894 23.894 0 13.172-10.719 23.891-23.894 23.891zm-34.133-34.133c-5.649 0-10.238 4.594-10.238 10.242 0 5.645 4.59 10.239 10.238 10.239h34.133c5.648 0 10.242-4.594 10.242-10.239 0-5.648-4.594-10.242-10.242-10.242zm0 0" fill="#4c241d"/></svg>