<svg xmlns="http://www.w3.org/2000/svg" version="1.1" id="Layer_1" x="0" y="0" viewBox="0 0 256 256" xml:space="preserve" width="512" height="512"><style>.st0{fill:#382b73}.st2{fill:#009add}.st3{fill:#1caee4}.st4{fill:#f7cb15}.st5{fill:#ef5a9d}.st7{fill:#e43d91}.st9{fill:#e7ad27}.st10{fill:#fff}.st11{fill:#bcbec0}.st12{fill:#136da0}.st13{fill:#fff335}.st14{fill:#f06ea9}.st15{fill:#fede3a}</style><switch><g><circle class="st0" cx="128" cy="128" r="119.4"/><circle cx="128" cy="128" r="103.299" fill="#473080"/><path class="st0" d="M185.667 90.57v-9.196-.004c0-.238-.018-.472-.045-.703-.008-.069-.021-.137-.031-.206a6.133 6.133 0 00-.096-.493c-.017-.069-.034-.138-.053-.206a5.92 5.92 0 00-.169-.513c-.017-.044-.031-.089-.049-.132a5.999 5.999 0 00-5.557-3.742h-40.184V62.292h-22.965v13.083H76.333a5.998 5.998 0 00-5.575 3.79l-.011.03a5.827 5.827 0 00-.227.715c-.118.47-.188.958-.188 1.465V191.708a6 6 0 006 6h103.334a6 6 0 006-6v-6.999V90.57h.001z"/><g><path class="st2" d="M179.667 190.708H76.333a6 6 0 01-6-6V81.374a6 6 0 016-6h103.334a6 6 0 016 6v103.334a6 6 0 01-6 6z"/><path class="st2" d="M179.667 183.708H76.333a6 6 0 01-6-6V74.374a6 6 0 016-6h103.334a6 6 0 016 6v103.334a6 6 0 01-6 6z"/><path class="st3" d="M114.91 122.769h26.18v12.087h-26.18zM129.832 139.978h26.18v12.087h-26.18zM100.176 105.669h26.18v12.087h-26.18zM100.176 139.978h26.18v12.087h-26.18zM84.596 88.582h26.18v12.087h-26.18zM100.176 71.483h26.18V83.57h-26.18zM129.832 105.669h26.18v12.087h-26.18zM129.832 71.483h26.18V83.57h-26.18zM159.487 105.669h26.18v12.087h-26.18zM159.487 83.57h26.18v-9.196c0-1.049-.27-2.033-.743-2.891h-25.437V83.57zM96.7 71.483H71.076a5.924 5.924 0 00-.555 1.426v10.66H96.7V71.483zM114.91 157.077h26.18v12.087h-26.18zM70.521 105.669h26.18v12.087h-26.18zM114.91 88.582h26.18v12.087h-26.18zM159.487 139.978h26.18v12.087h-26.18zM70.333 122.769h10.128v12.087H70.333zM70.333 88.582h10.128v12.087H70.333zM145.225 88.582h26.18v12.087h-26.18zM145.225 122.769h26.18v12.087h-26.18zM70.333 157.077h10.128v12.087H70.333zM175.54 88.582h10.127v12.087H175.54zM84.596 122.769h26.18v12.087h-26.18zM175.54 157.077h10.127v12.087H175.54zM175.54 122.769h10.127v12.087H175.54zM84.596 157.077h26.18v12.087h-26.18zM70.521 179.173a5.996 5.996 0 005.812 4.535H96.7v-9.593H70.52v5.058zM159.487 183.708h20.18a6 6 0 006-6v-3.593h-26.18v9.593zM70.521 139.978h26.18v12.087h-26.18zM145.225 157.077h26.18v12.087h-26.18zM129.832 174.115h26.18v9.593h-26.18zM100.176 174.115h26.18v9.593h-26.18z"/><path class="st4" d="M128 83.375c-21.171 0-38.333 17.162-38.333 38.333v62h76.667v-62c0-21.171-17.163-38.333-38.334-38.333z"/><path class="st5" d="M128 94.208c-14.384 0-26.044 11.66-26.044 26.044v63.457h52.088v-63.457c0-14.384-11.66-26.044-26.044-26.044z"/><path d="M128 115.75c-9.134 0-16.538 7.404-16.538 16.538v40.296h33.076v-40.296c0-9.134-7.404-16.538-16.538-16.538z" fill="#a72973"/><path class="st7" d="M111.462 172.583l-9.505 11.125h52.087l-9.506-11.125z"/><path fill="#d1d3d4" d="M118.366 58.977v19.268h3.639v5.13h4.474v-5.13h3.042v5.13h4.474v-5.13h3.64V58.977z"/><g><path class="st2" d="M128 83.375c3.631 0 7.14.516 10.469 1.459h1.014V58.866h-22.965v25.968h1.014A38.342 38.342 0 01128 83.375z"/><path class="st9" d="M123.521 90.947a2.666 2.666 0 002.666-2.666v-3.447h3.626v3.447a2.667 2.667 0 005.332 0v-.335h.001v-3.112h3.324a38.342 38.342 0 00-10.468-1.459c-3.631 0-7.139.516-10.468 1.459h3.323v3.447a2.662 2.662 0 002.664 2.666z"/><path class="st10" d="M135.483 78.257h-14.965a4 4 0 01-4-4V59.292a4 4 0 014-4h14.965a4 4 0 014 4v14.965a4 4 0 01-4 4zM123.521 84.37a2.667 2.667 0 01-2.666-2.666v-3.447h5.332v3.447a2.667 2.667 0 01-2.666 2.666zM132.479 84.37a2.667 2.667 0 01-2.666-2.666v-3.447h5.332v3.447a2.667 2.667 0 01-2.666 2.666z"/><path class="st11" d="M123.868 67.378h-.693a2 2 0 01-2-2v-3.536a2 2 0 012-2h.693a2 2 0 012 2v3.536a2 2 0 01-2 2zM133.145 67.378h-.694a2 2 0 01-2-2v-3.536a2 2 0 012-2h.694a2 2 0 012 2v3.536a2 2 0 01-2 2zM126.432 73.733a.75.75 0 01-.75-.75v-.909a.75.75 0 011.5 0v.909a.75.75 0 01-.75.75zM129.569 73.733a.75.75 0 01-.75-.75v-.909a.75.75 0 011.5 0v.909a.75.75 0 01-.75.75z"/></g><path class="st7" d="M111.525 131.042c.639-8.55 7.762-15.292 16.475-15.292V94.208c-14.384 0-26.044 11.66-26.044 26.044v10.79h9.569zM144.476 131.042c-.639-8.55-7.762-15.292-16.475-15.292V94.208c14.383 0 26.044 11.66 26.044 26.044v10.79h-9.569z"/><g><path class="st12" d="M179.625 144.826c0-1.571-1.997-5.278-3.186-7.348a.999.999 0 00-1.73 0c-1.19 2.07-3.186 5.777-3.186 7.348 0 2.035 1.505 3.704 3.461 3.992a2.947 2.947 0 001.182 0c1.953-.288 3.459-1.957 3.459-3.992z"/><path class="st12" d="M179.99 161.253h-.749v.021c0-.403-.22-.74-.535-.944l.919-7.452h.146a2 2 0 100-4H171.375a2 2 0 000 4h.146l.919 7.452c-.309.201-.523.53-.53.924h-.733c-.931 0-1.706.639-1.929 1.5a1.966 1.966 0 00-.071.5 2 2 0 002 2 .739.739 0 00.484-.188c.014-.012.033-.018.046-.031.013-.013.019-.032.031-.046a.739.739 0 00.188-.484v-.375h.983l.36 2.922a2.32 2.32 0 004.606 0l.36-2.922h1.003v.375a.749.749 0 00.75.75 2.003 2.003 0 001.999-2 1.996 1.996 0 00-1.997-2.002zM179.625 94.691c0-1.571-1.997-5.278-3.186-7.348a.999.999 0 00-1.73 0c-1.19 2.07-3.186 5.777-3.186 7.348 0 2.035 1.505 3.704 3.461 3.992a2.947 2.947 0 001.182 0c1.953-.288 3.459-1.957 3.459-3.992z"/><path class="st12" d="M171.178 115.118a.739.739 0 00.484-.188c.014-.012.033-.018.046-.031.013-.013.019-.032.031-.046a.738.738 0 00.188-.483v-.375h.983l.36 2.922a2.32 2.32 0 004.606 0l.36-2.922h1.003v.376a.75.75 0 00.75.75 2.003 2.003 0 001.999-2 2 2 0 00-2-2h-.749v.021c0-.403-.22-.74-.535-.944l.919-7.452h.146a2 2 0 100-4H171.373a2 2 0 000 4h.146l.919 7.452c-.309.2-.523.53-.53.924h-.733c-.931 0-1.706.639-1.929 1.5a1.966 1.966 0 00-.071.5 2.004 2.004 0 002.003 1.996zM84.448 144.826c0-1.571-1.997-5.278-3.187-7.348a.999.999 0 00-1.73 0c-1.19 2.07-3.187 5.777-3.187 7.348 0 2.035 1.506 3.704 3.461 3.992a2.947 2.947 0 001.182 0c1.956-.288 3.461-1.957 3.461-3.992z"/><path class="st12" d="M84.813 161.253h-.75v.021c0-.403-.22-.74-.535-.944l.919-7.452h.146a2 2 0 000-4H76.197a2 2 0 000 4h.146l.919 7.452c-.309.201-.523.53-.53.924h-.733c-.931 0-1.706.639-1.929 1.5a2.012 2.012 0 00-.071.5 2 2 0 002 2 .74.74 0 00.484-.188c.014-.012.033-.018.046-.031.013-.013.019-.032.031-.046a.739.739 0 00.188-.484v-.375h.983l.361 2.922a2.32 2.32 0 004.606 0l.361-2.922h1.003v.375a.75.75 0 00.75.75 2.003 2.003 0 002-2 1.998 1.998 0 00-1.999-2.002zM84.448 94.691c0-1.571-1.997-5.278-3.187-7.348a.999.999 0 00-1.73 0c-1.19 2.07-3.187 5.777-3.187 7.348 0 2.035 1.506 3.704 3.461 3.992a2.947 2.947 0 001.182 0c1.956-.288 3.461-1.957 3.461-3.992z"/><path class="st12" d="M84.813 111.118h-.75v.021c0-.403-.22-.74-.535-.944l.919-7.452h.146a2 2 0 000-4H76.197a2 2 0 000 4h.146l.919 7.452c-.309.2-.523.53-.53.924h-.733c-.931 0-1.706.639-1.929 1.5a2.012 2.012 0 00-.071.5 2 2 0 002 2 .74.74 0 00.484-.188c.014-.012.033-.018.046-.031.013-.013.019-.032.031-.046a.738.738 0 00.188-.483v-.375h.983l.361 2.922a2.32 2.32 0 004.606 0l.361-2.922h1.003v.376a.751.751 0 00.75.75 2.003 2.003 0 00.001-4.004z"/></g><g><path class="st9" d="M179.771 150.878h-8.396a2 2 0 110-4h8.396a2 2 0 010 4z"/><path class="st4" d="M177.129 150.878h-3.11c-.76 0-1.375-.616-1.375-1.375v-1.25c0-.76.616-1.375 1.375-1.375h3.11c.76 0 1.375.616 1.375 1.375v1.25c0 .759-.616 1.375-1.375 1.375zM175.574 167.086a2.32 2.32 0 01-2.303-2.036l-1.749-14.172h8.103l-1.749 14.172a2.32 2.32 0 01-2.302 2.036z"/><path class="st13" d="M175.574 167.086c-.518 0-.954-.873-1.018-2.036l-.734-13.461c-.021-.378.11-.711.278-.711h2.948c.168 0 .299.333.278.711l-.734 13.461c-.064 1.162-.501 2.036-1.018 2.036z"/><path class="st14" d="M179.625 142.826a4.052 4.052 0 11-8.104 0c0-1.571 1.997-5.278 3.187-7.348a.998.998 0 011.73 0c1.19 2.07 3.187 5.777 3.187 7.348z"/><path class="st5" d="M178.504 143.947a2.93 2.93 0 01-5.86 0c0-1.035 1.198-3.351 2.062-4.888a.996.996 0 011.737 0c.863 1.537 2.061 3.853 2.061 4.888z"/><path class="st7" d="M177.328 145.123a1.754 1.754 0 11-3.508 0c0-.48.431-1.421.865-2.248.378-.72 1.4-.72 1.778 0 .434.828.865 1.768.865 2.248z"/><path class="st15" d="M179.24 162.128h-7.333v-2.854c0-.633.513-1.146 1.146-1.146h5.042c.633 0 1.146.513 1.146 1.146v2.854z"/><path class="st9" d="M171.907 161.128h7.333v1h-7.333z"/><path class="st4" d="M171.178 163.253a2 2 0 010-4h.75v3.25a.75.75 0 01-.75.75z"/><path class="st9" d="M171.178 162.253a1.995 1.995 0 01-1.929-1.5 1.966 1.966 0 00-.071.5 2 2 0 002 2 .75.75 0 00.749-.75v-1a.75.75 0 01-.749.75z"/><path class="st4" d="M179.99 163.253a.75.75 0 01-.75-.75v-3.25h.75a2 2 0 010 4z"/><path class="st9" d="M179.99 162.253a.75.75 0 01-.749-.75v1c0 .414.335.75.749.75a2 2 0 002-2c0-.174-.029-.339-.071-.5a1.995 1.995 0 01-1.929 1.5z"/></g><g><path class="st9" d="M179.771 100.743h-8.396a2 2 0 110-4h8.396a2 2 0 010 4z"/><path class="st4" d="M177.129 100.743h-3.11c-.76 0-1.375-.616-1.375-1.375v-1.25c0-.759.616-1.375 1.375-1.375h3.11c.76 0 1.375.616 1.375 1.375v1.25c0 .759-.616 1.375-1.375 1.375zM175.574 116.951a2.32 2.32 0 01-2.303-2.036l-1.749-14.172h8.103l-1.749 14.172a2.32 2.32 0 01-2.302 2.036z"/><path class="st13" d="M175.574 116.951c-.518 0-.954-.873-1.018-2.036l-.734-13.461c-.021-.378.11-.711.278-.711h2.948c.168 0 .299.333.278.711l-.734 13.461c-.064 1.162-.501 2.036-1.018 2.036z"/><path class="st14" d="M179.625 92.691a4.052 4.052 0 11-8.104 0c0-1.571 1.997-5.278 3.187-7.348a.999.999 0 011.73 0c1.19 2.07 3.187 5.777 3.187 7.348z"/><path class="st5" d="M178.504 93.812a2.931 2.931 0 01-5.86 0c0-1.035 1.198-3.351 2.062-4.888a.996.996 0 011.737 0c.863 1.537 2.061 3.853 2.061 4.888z"/><path class="st7" d="M177.328 94.988a1.754 1.754 0 11-3.508 0c0-.48.431-1.421.865-2.248.378-.72 1.4-.72 1.778 0 .434.828.865 1.768.865 2.248z"/><path class="st15" d="M179.24 111.993h-7.333v-2.854c0-.633.513-1.146 1.146-1.146h5.042c.633 0 1.146.513 1.146 1.146v2.854z"/><path class="st9" d="M171.907 110.993h7.333v1h-7.333z"/><path class="st4" d="M171.178 113.118a2 2 0 010-4h.75v3.25a.75.75 0 01-.75.75z"/><path class="st9" d="M171.178 112.118a1.995 1.995 0 01-1.929-1.5 1.966 1.966 0 00-.071.5 2 2 0 002 2 .75.75 0 00.749-.75v-1a.75.75 0 01-.749.75z"/><path class="st4" d="M179.99 113.118a.75.75 0 01-.75-.75v-3.25h.75a2 2 0 010 4z"/><path class="st9" d="M179.99 112.118a.75.75 0 01-.749-.75v1c0 .414.335.75.749.75a2 2 0 002-2c0-.174-.029-.339-.071-.5a1.995 1.995 0 01-1.929 1.5z"/></g><g><path class="st9" d="M84.594 150.878h-8.396a2 2 0 010-4h8.396a2 2 0 010 4z"/><path class="st4" d="M81.952 150.878h-3.11a1.376 1.376 0 01-1.375-1.375v-1.25c0-.76.616-1.375 1.375-1.375h3.11c.76 0 1.375.616 1.375 1.375v1.25c0 .759-.616 1.375-1.375 1.375zM80.397 167.086a2.32 2.32 0 01-2.303-2.036l-1.749-14.172h8.103L82.7 165.05a2.322 2.322 0 01-2.303 2.036z"/><path class="st13" d="M80.397 167.086c-.518 0-.954-.873-1.018-2.036l-.734-13.461c-.021-.378.11-.711.278-.711h2.948c.168 0 .299.333.278.711l-.734 13.461c-.064 1.162-.501 2.036-1.018 2.036z"/><path class="st14" d="M84.448 142.826a4.052 4.052 0 11-8.104 0c0-1.571 1.997-5.278 3.187-7.348a.998.998 0 011.73 0c1.19 2.07 3.187 5.777 3.187 7.348z"/><path class="st5" d="M83.327 143.947a2.93 2.93 0 01-5.86 0c0-1.035 1.198-3.351 2.062-4.888a.996.996 0 011.737 0c.863 1.537 2.061 3.853 2.061 4.888z"/><path class="st7" d="M82.151 145.123a1.754 1.754 0 11-3.508 0c0-.48.43-1.421.865-2.248.378-.72 1.4-.72 1.778 0 .434.828.865 1.768.865 2.248z"/><path class="st15" d="M84.063 162.128H76.73v-2.854c0-.633.513-1.146 1.146-1.146h5.042c.633 0 1.146.513 1.146 1.146v2.854z"/><path class="st9" d="M76.73 161.128h7.333v1H76.73z"/><path class="st4" d="M76.001 163.253a2 2 0 010-4h.75v3.25a.75.75 0 01-.75.75z"/><path class="st9" d="M76.001 162.253a1.995 1.995 0 01-1.929-1.5 1.966 1.966 0 00-.071.5 2 2 0 002 2 .75.75 0 00.749-.75v-1a.75.75 0 01-.749.75z"/><path class="st4" d="M84.813 163.253a.75.75 0 01-.75-.75v-3.25h.75a2 2 0 010 4z"/><path class="st9" d="M84.813 162.253a.75.75 0 01-.749-.75v1c0 .414.336.75.749.75a2 2 0 002-2c0-.174-.029-.339-.071-.5a1.995 1.995 0 01-1.929 1.5z"/></g><g><path class="st9" d="M84.594 100.743h-8.396a2 2 0 010-4h8.396a2 2 0 010 4z"/><path class="st4" d="M81.952 100.743h-3.11a1.376 1.376 0 01-1.375-1.375v-1.25c0-.759.616-1.375 1.375-1.375h3.11c.76 0 1.375.616 1.375 1.375v1.25c0 .759-.616 1.375-1.375 1.375zM80.397 116.951a2.32 2.32 0 01-2.303-2.036l-1.749-14.172h8.103L82.7 114.915a2.322 2.322 0 01-2.303 2.036z"/><path class="st13" d="M80.397 116.951c-.518 0-.954-.873-1.018-2.036l-.734-13.461c-.021-.378.11-.711.278-.711h2.948c.168 0 .299.333.278.711l-.734 13.461c-.064 1.162-.501 2.036-1.018 2.036z"/><path class="st14" d="M84.448 92.691a4.052 4.052 0 11-8.104 0c0-1.571 1.997-5.278 3.187-7.348a.999.999 0 011.73 0c1.19 2.07 3.187 5.777 3.187 7.348z"/><path class="st5" d="M83.327 93.812a2.931 2.931 0 01-5.86 0c0-1.035 1.198-3.351 2.062-4.888a.996.996 0 011.737 0c.863 1.537 2.061 3.853 2.061 4.888z"/><path class="st7" d="M82.151 94.988a1.754 1.754 0 11-3.508 0c0-.48.43-1.421.865-2.248.378-.72 1.4-.72 1.778 0 .434.828.865 1.768.865 2.248z"/><path class="st15" d="M84.063 111.993H76.73v-2.854c0-.633.513-1.146 1.146-1.146h5.042c.633 0 1.146.513 1.146 1.146v2.854z"/><path class="st9" d="M76.73 110.993h7.333v1H76.73z"/><path class="st4" d="M76.001 113.118a2 2 0 010-4h.75v3.25a.75.75 0 01-.75.75z"/><path class="st9" d="M76.001 112.118a1.995 1.995 0 01-1.929-1.5 1.966 1.966 0 00-.071.5 2 2 0 002 2 .75.75 0 00.749-.75v-1a.75.75 0 01-.749.75z"/><path class="st4" d="M84.813 113.118a.75.75 0 01-.75-.75v-3.25h.75a2 2 0 010 4z"/><path class="st9" d="M84.813 112.118a.75.75 0 01-.749-.75v1c0 .414.336.75.749.75a2 2 0 002-2c0-.174-.029-.339-.071-.5a1.995 1.995 0 01-1.929 1.5z"/></g></g></g></switch></svg>