<svg xmlns="http://www.w3.org/2000/svg" viewBox="0 0 318.188 318.188"><path fill="#e8e8e8" d="M227.321 7.5H40.342v303.188h237.504V58.025z"/><g fill="#333e48"><path d="M133.852 124.082h-8.881V99.775l.087-3.994.145-4.368c-1.476 1.476-2.499 2.442-3.074 2.901l-4.828 3.88-4.279-5.346 13.532-10.773h7.299l-.001 42.007zM174.622 103.078c0 7.336-1.203 12.768-3.607 16.293-2.404 3.524-6.105 5.285-11.104 5.285-4.847 0-8.5-1.82-10.962-5.459-2.461-3.639-3.692-9.013-3.692-16.119 0-7.413 1.197-12.876 3.592-16.392 2.394-3.514 6.082-5.271 11.063-5.271 4.846 0 8.509 1.84 10.988 5.517 2.48 3.677 3.722 9.058 3.722 16.146zm-20.545 0c0 5.153.446 8.845 1.336 11.076.891 2.232 2.39 3.348 4.498 3.348 2.068 0 3.563-1.131 4.481-3.391.92-2.26 1.379-5.937 1.379-11.033 0-5.15-.465-8.852-1.393-11.104-.93-2.249-2.419-3.376-4.468-3.376-2.088 0-3.582 1.127-4.483 3.376-.899 2.253-1.35 5.954-1.35 11.104zM201.026 124.082h-8.879V99.775l.087-3.994.144-4.368c-1.475 1.476-2.5 2.442-3.074 2.901l-4.826 3.88-4.282-5.346 13.532-10.773h7.299l-.001 42.007z"/><g><path d="M141.033 160.666c0 7.336-1.201 12.767-3.604 16.29-2.405 3.525-6.106 5.287-11.105 5.287-4.847 0-8.501-1.819-10.963-5.458-2.461-3.639-3.691-9.012-3.691-16.119 0-7.414 1.197-12.878 3.592-16.393s6.082-5.271 11.063-5.271c4.846 0 8.509 1.837 10.988 5.516 2.48 3.678 3.72 9.061 3.72 16.148zm-20.544 0c0 5.152.446 8.845 1.337 11.076s2.39 3.346 4.497 3.346c2.068 0 3.562-1.129 4.481-3.389.919-2.261 1.378-5.938 1.378-11.033 0-5.152-.463-8.854-1.393-11.105-.929-2.25-2.418-3.375-4.467-3.375-2.088 0-3.583 1.125-4.483 3.375-.901 2.251-1.35 5.953-1.35 11.105zM167.438 181.667h-8.879v-24.306l.087-3.994.144-4.366c-1.477 1.474-2.5 2.442-3.073 2.903l-4.829 3.877-4.279-5.344 13.532-10.774h7.298v42.004h-.001zM201.026 181.667h-8.879v-24.306l.087-3.994.144-4.366c-1.475 1.474-2.5 2.442-3.074 2.903l-4.826 3.877-4.282-5.344 13.532-10.774h7.299l-.001 42.004z"/></g></g><path fill="#333e48" d="M235.14 32.763H40.342V7.5h186.979z"/><path fill="#d1d3d3" d="M227.321 58.025h50.525L227.321 7.5z"/><path d="M146.451 281.371h13.028v-47.979h-13.028v47.979zM283.149 52.723L232.625 2.197A7.5 7.5 0 00227.321 0H40.342a7.5 7.5 0 00-7.5 7.5v303.188c0 4.143 3.357 7.5 7.5 7.5h237.504c4.143 0 7.5-3.357 7.5-7.5V58.025c0-1.989-.79-3.896-2.197-5.302zm-48.328-27.117l24.918 24.919h-24.918V25.606zM47.842 15h171.979v10.263H47.842V15zm222.504 288.188H47.842V40.263h171.979v17.763c0 4.143 3.357 7.5 7.5 7.5h43.024v237.662h.001zm-66.366-48.104c0 2.932.152 6.815.459 11.65h-.196l-17.459-33.343H169.85v47.979h11.485v-21.627c0-2.801-.208-6.859-.623-12.176h.295l17.525 33.803h16.999v-47.979H203.98v21.693zm-74.331 1.148v-.328c2.252-.547 4.068-1.771 5.447-3.676 1.379-1.902 2.067-4.2 2.067-6.891 0-4.092-1.581-7.105-4.742-9.041-3.161-1.938-8.003-2.905-14.521-2.905h-16.737v47.979h18.674c5.645 0 10.102-1.252 13.373-3.758 3.27-2.505 4.906-5.934 4.906-10.288 0-2.932-.668-5.316-2.002-7.154-1.335-1.837-3.49-3.149-6.465-3.938zm-15.523-13.028h3.643c4.07 0 6.104 1.346 6.104 4.036 0 1.51-.509 2.648-1.526 3.414s-2.456 1.148-4.315 1.148h-3.905l-.001-8.598zm4.562 28.157h-4.563v-10.074h4.299c2.057 0 3.627.426 4.71 1.279s1.624 2.079 1.624 3.676c.001 3.413-2.023 5.119-6.07 5.119z" fill="#333e48"/></svg>