<svg viewBox="0 0 512 512" xmlns="http://www.w3.org/2000/svg"><path d="M456.245 430.594H58.443c-11.277 0-20.419-9.142-20.419-20.419V76.656c0-11.277 9.142-20.419 20.419-20.419h397.802c11.277 0 20.419 9.142 20.419 20.419v333.518c.001 11.278-9.141 20.42-20.419 20.42z" fill="#feb137"/><path d="M456.245 56.236H416.56c11.277 0 20.419 9.142 20.419 20.419v333.518c0 11.277-9.142 20.419-20.419 20.419h39.685c11.277 0 20.419-9.142 20.419-20.419V76.656c.001-11.278-9.141-20.42-20.419-20.42z" fill="#f6ab31"/><path d="M491.58 110.312H239.979L189.85 36.3a20.42 20.42 0 00-16.907-8.969H20.42C9.142 27.331 0 36.473 0 47.75v416.5c0 11.277 9.142 20.419 20.42 20.419h471.16c11.277 0 20.42-9.142 20.42-20.419V130.731c0-11.277-9.142-20.419-20.42-20.419z" fill="#ffd15b"/><path d="M491.581 110.312h-39.685c11.277 0 20.419 9.142 20.419 20.419V464.25c0 11.277-9.142 20.419-20.419 20.419h39.685c11.277 0 20.419-9.142 20.419-20.419V130.731c0-11.277-9.142-20.419-20.419-20.419z" fill="#ffc344"/></svg>