<?xml version="1.0" encoding="iso-8859-1"?>
<svg version="1.1" id="Capa_1" xmlns="http://www.w3.org/2000/svg" xmlns:xlink="http://www.w3.org/1999/xlink" x="0px" y="0px"
	 viewBox="0 0 512 512" style="enable-background:new 0 0 512 512;" xml:space="preserve">
<path style="fill:#F19920;" d="M158.255,34.909H34.909c-12.8,0-23.273,10.473-23.273,23.273v93.091h488.727v-46.545
	c0-12.8-10.473-23.273-23.273-23.273H249.018c-10.473,0-20.945-3.491-29.091-10.473l-32.582-25.6
	C179.2,38.4,168.727,34.909,158.255,34.909z"/>
<path style="fill:#FFCB5B;" d="M512,162.909v290.909c0,12.8-10.473,23.273-23.273,23.273H23.273C10.473,477.091,0,466.618,0,453.818
	V162.909c0-6.982,4.655-11.636,11.636-11.636h488.727C507.345,151.273,512,155.927,512,162.909z"/>
<path style="fill:#FFFFFF;" d="M477.091,151.273v-34.909c0-6.982-4.655-11.636-11.636-11.636H46.545
	c-6.982,0-11.636,4.655-11.636,11.636v34.909H477.091z"/>
<path style="fill:#F7B84E;" d="M488.727,230.4v223.418H34.909c-6.982,0-11.636,4.655-11.636,11.636l0,0
	c0,6.982,4.655,11.636,11.636,11.636h453.818c12.8,0,23.273-10.473,23.273-23.273V174.545l0,0
	C496.873,189.673,488.727,209.455,488.727,230.4z"/>
<path style="fill:#FFDB6F;" d="M39.564,162.909c-10.473,0-20.945-4.655-27.927-11.636l0,0h349.091l0,0
	c-6.982,6.982-17.455,11.636-27.927,11.636H39.564z"/>
<g>
	<path style="fill:#E78825;" d="M477.091,151.273h23.273l0,0c-4.655-6.982-11.636-11.636-18.618-11.636h-4.655V151.273z"/>
	<path style="fill:#E78825;" d="M34.909,151.273H11.636l0,0c4.655-6.982,11.636-11.636,18.618-11.636h4.655V151.273z"/>
</g>
<rect x="34.909" y="139.636" style="fill:#D1D9E1;" width="442.182" height="11.636"/>
<g>
	<path style="fill:#F19920;" d="M180.364,279.273h151.273c3.491,0,5.818,2.327,5.818,5.818l0,0c0,3.491-2.327,5.818-5.818,5.818
		H180.364c-3.491,0-5.818-2.327-5.818-5.818l0,0C174.545,281.6,176.873,279.273,180.364,279.273z"/>
	<path style="fill:#F19920;" d="M203.636,314.182h104.727c3.491,0,5.818,2.327,5.818,5.818l0,0c0,3.491-2.327,5.818-5.818,5.818
		H203.636c-3.491,0-5.818-2.327-5.818-5.818l0,0C197.818,316.509,200.145,314.182,203.636,314.182z"/>
</g>
</svg>
