<svg height="512" viewBox="0 0 428.235 428.235" width="512" xmlns="http://www.w3.org/2000/svg"><path d="M307.795 321.176H120.443c-7.397 0-13.382 5.985-13.382 13.382v80.294c0 7.397 5.985 13.382 13.382 13.382h187.353c7.397 0 13.382-5.985 13.382-13.382v-80.294c0-7.396-5.986-13.382-13.383-13.382zM371.19 164.927L223.945 4.339C221.42 1.579 217.773.008 214.121 0c-3.68-.008-7.365 1.571-9.91 4.339L57.045 164.927c-3.581 3.921-4.522 9.579-2.379 14.428a13.367 13.367 0 0012.245 7.998h40.147v93.676c0 7.397 5.985 13.382 13.382 13.382h187.353c7.397 0 13.382-5.985 13.382-13.382v-93.676h40.147a13.368 13.368 0 0012.245-7.998 13.37 13.37 0 00-2.377-14.428z"/></svg>