<svg height="512" viewBox="0 0 54 58" width="512" xmlns="http://www.w3.org/2000/svg"><g id="Page-1" fill="none" fill-rule="evenodd"><g id="035---Sea-Mine" fill-rule="nonzero"><path id="Shape" d="m44.47 37.06v-.01c.0147763-1.4266637-.7424879-2.7499638-1.98-3.46-1.6769392-.9768388-3.813132-.6090155-5.0667878.8724319-1.2536559 1.4814474-1.2630395 3.6490556-.0222568 5.1413015 1.2407827 1.4922458 3.3737109 1.8785501 5.0590446.9162666l3.23 1.87c-1.5977353 2.2315063-3.5824377 4.1586319-5.86 5.69-3.2193792 2.1891079-6.9501515 3.5084854-10.83 3.83v-3.45c1.5678721-.9052114 2.3322752-2.7506437 1.8637033-4.4993778s-2.0532806-2.9647238-3.8637033-2.9647238-3.3951314 1.2159897-3.8637033 2.9647238.2958312 3.5941664 1.8637033 4.4993778v3.45c-6.6858576-.5862299-12.7821236-4.0635488-16.69-9.52l3.23-1.87c1.5720216.9036862 3.5549907.639071 4.8350417-.6452071s1.5381273-3.2681087.6292634-4.8371425c-.908864-1.5690338-2.7581311-2.3321843-4.5090384-1.8607775-1.7509073.4714067-2.96703586 2.059871-2.9652667 3.8731271v.01l-3.26 1.89c-3.02661399-6.2915992-3.02661399-13.6184008 0-19.91l3.26 1.9c-.00446361 1.8102603 1.2074085 3.3978657 2.9547805 3.8708915 1.747372.4730257 3.5946168-.2864554 4.503943-1.8517631.9093261-1.5653077.6540349-3.5462043-.6224499-4.8298121-1.2764847-1.2836078-3.2559301-1.549918-4.8262736-.6493163l-3.23-1.87c1.58181969-2.2071468 3.5421028-4.1166455 5.79-5.64 1.1004311-.75951289 2.2687383-1.4156396 3.49-1.96 2.3434415-1.0550281 4.8490899-1.70426494 7.41-1.92v3.45c-1.5678721.9052114-2.3322752 2.7506437-1.8637033 4.4993778s2.0532806 2.9647238 3.8637033 2.9647238 3.3951314-1.2159897 3.8637033-2.9647238-.2958312-3.5941664-1.8637033-4.4993778v-3.45c2.5311473.21310135 5.0087416.84855525 7.33 1.88 3.7443561 1.66823693 6.9755675 4.3056787 9.36 7.64l-3.23 1.87c-1.5728321-.9041387-3.5569025-.6387344-4.8367996.6470071-1.279897 1.2857414-1.5362595 3.2710003-.6249646 4.839697.9112949 1.5686966 2.7628598 2.3294081 4.5137756 1.854475s2.964292-2.0670049 2.9579886-3.8811791l3.26-1.9c3.0232062 6.2950851 3.0268843 13.6218827.01 19.92z" fill="#2980ba"/><path id="Shape" d="m53 30h-52c-.55228475 0-1-.4477153-1-1s.44771525-1 1-1h52c.5522847 0 1 .4477153 1 1s-.4477153 1-1 1z" fill="#3f5c6c"/><path id="Shape" d="m31 13c.0019904 1.9416892-1.3907518 3.6043776-3.3027125 3.9428557-1.9119607.338478-3.7908663-.7450242-4.4555876-2.5693889-.6647214-1.8243647.0767476-3.8626207 1.7583001-4.8334668v1.46c0 1.1045695.8954305 2 2 2s2-.8954305 2-2v-1.46c1.2393657.7107625 2.0026782 2.0312931 2 3.46z" fill="#2c3e50"/><path id="Shape" d="m29 1v10c0 1.1045695-.8954305 2-2 2s-2-.8954305-2-2v-10c0-.55228475.4477153-1 1-1h2c.5522847 0 1 .44771525 1 1z" fill="#67b9cc"/><g fill="#285680"><path id="Shape" d="m17.59 8.01c-1.2212617.5443604-2.3895689 1.20048711-3.49 1.96l-2.48-4.45c-.269731-.48059474-.0997834-1.0888284.38-1.36l1.75-.98c.4839972-.26112158 1.0879375-.08793281 1.36.39z"/><path id="Shape" d="m42.29 5.46-2.46 4.45c-1.1089536-.74571041-2.2799264-1.39476387-3.5-1.94l2.46-4.45c.2709922-.47929202.8761901-.65284141 1.36-.39l1.75.97c.2321493.12854811.4036858.34409709.4768345.5991798.0731487.25508272.0419109.52878022-.0868345.7608202z"/><path id="Shape" d="m41.9 53.85-1.75.97c-.4805947.269731-1.0888284.0997834-1.36-.38l-2.46-4.41c1.2222664-.5447594 2.3935641-1.1973396 3.5-1.95l2.46 4.41c.1287454.23204.1599832.5057375.0868345.7608202s-.2446852.4706317-.4768345.5991798z"/><path id="Shape" d="m17.6 49.99-2.48 4.49c-.2664386.4843438-.8737635.6629688-1.36.4l-1.75-.97c-.4843438-.2664386-.6629688-.8737635-.4-1.36l2.5-4.51c1.1029695.7525892 2.2709412 1.4051809 3.49 1.95z"/></g><path id="Shape" d="m16.98 22.96c-.9062412 1.567879-2.7541609 2.329563-4.5019959 1.8556533-1.7478351-.4739096-2.95789273-2.0647365-2.9480041-3.8756533l1.26.73c.6185658.4118972 1.4145136.4468532 2.0668072.0907689s1.0533629-1.044487 1.0414414-1.7875488-.4348678-1.4182441-1.0982486-1.7532201l-1.26-.74c1.5700865-.8930886 3.5438986-.6230958 4.81647.6588327 1.2725714 1.2819286 1.5280969 3.2576656.62353 4.8211673z" fill="#2c3e50"/><path id="Shape" d="m13.52 20.95c-.2643696.4598424-.7017826.7947503-1.214666.9300162-.5128835.135266-1.0585699.0596371-1.515334-.2100162l-1.26-.73-3.26-1.9-4.12-2.4c-.47613642-.2746085-.6413883-.8820208-.37-1.36l1.01-1.73c.13362798-.2297442.35321715-.3968418.61027016-.4643886.257053-.0675467.53042119-.0299853.75972984.1043886l4.15 2.42 3.23 1.87 1.26.74c.4598424.2643696.7947503.7017826.9300162 1.214666.135266.5128835.0596371 1.0585699-.2100162 1.515334z" fill="#67b9cc"/><path id="Shape" d="m44.47 20.94c.0044636 1.8102603-1.2074085 3.3978657-2.9547805 3.8708915-1.747372.4730257-3.5946168-.2864554-4.503943-1.8517631-.9093261-1.5653077-.6540349-3.5462043.6224499-4.8298121 1.2764847-1.2836078 3.2559301-1.549918 4.8262736-.6493163l-1.26.74c-.8806621.5864247-1.1522206 1.7572987-.6195966 2.6715041s1.6851307 1.2554066 2.6295966.7784959z" fill="#2c3e50"/><path id="Shape" d="m51.85 16.64-4.12 2.4-3.26 1.9-1.26.73c-.9444659.4769107-2.0969726.1357095-2.6295966-.7784959s-.2610655-2.0850794.6195966-2.6715041l1.26-.74 3.23-1.87 4.15-2.42c.2293087-.1343739.5026768-.1719353.7597298-.1043886.257053.0675468.4766422.2346444.6102702.4643886l1.01 1.73c.2713883.4779792.1061364 1.0853915-.37 1.36z" fill="#67b9cc"/><path id="Shape" d="m31 45c.0026782 1.4287069-.7606343 2.7492375-2 3.46v-1.46c0-1.1045695-.8954305-2-2-2s-2 .8954305-2 2v1.46c-1.6815525-.9708461-2.4230215-3.0091021-1.7583001-4.8334668.6647213-1.8243647 2.5436269-2.9078669 4.4555876-2.5693889 1.9119607.3384781 3.3047029 2.0011665 3.3027125 3.9428557z" fill="#2c3e50"/><path id="Shape" d="m29 47v10c0 .5522847-.4477153 1-1 1h-2c-.5522847 0-1-.4477153-1-1v-10c0-1.1045695.8954305-2 2-2s2 .8954305 2 2z" fill="#67b9cc"/><path id="Shape" d="m15.54 40.5c-1.2325476.726129-2.760253.7337676-4 .02l1.26-.74c.6180695-.3590519.9976373-1.0205657.9957239-1.7353555-.0019133-.7147899-.3850171-1.3742621-1.005-1.73-.6199828-.3557379-1.3826544-.3536964-2.0007239.0053555l-1.26.73c-.01477635-1.4266637.7424879-2.7499638 1.98-3.46 1.2356264-.7425114 2.7752011-.762721 4.0298919-.0528994 1.2546908.7098215 2.030385 2.039858 2.0304074 3.4814182.0000224 1.4415601-.7756305 2.7716207-2.0302993 3.4814812z" fill="#2c3e50"/><path id="Shape" d="m12.8 39.78-1.26.74-3.23 1.87-4.15 2.42c-.22930865.1343739-.50267684.1719353-.75972984.1043886-.25705301-.0675468-.47664218-.2346444-.61027016-.4643886l-1.01-1.73c-.27230039-.4809795-.10741568-1.0914986.37-1.37l4.12-2.4 3.26-1.89v-.01l1.26-.73c.9554526-.5550462 2.1799538-.2304526 2.735.725s.2304526 2.1799538-.725 2.735z" fill="#67b9cc"/><path id="Shape" d="m40.48 37.05c-.2696533.4567641-.3452822 1.0024505-.2100162 1.515334.1352659.5128834.4701738.9502964.9300162 1.214666l1.26.74c-1.5720216.9036862-3.5549907.639071-4.8350417-.6452071s-1.5381273-3.2681087-.6292634-4.8371425c.908864-1.5690338 2.7581311-2.3321843 4.5090384-1.8607775 1.7509073.4714067 2.9670359 2.059871 2.9652667 3.8731271l-1.26-.73c-.9555913-.551234-2.1770707-.2246113-2.73.73z" fill="#2c3e50"/><path id="Shape" d="m52.22 42.72-1.01 1.73c-.133628.2297442-.3532172.3968418-.6102702.4643886-.257053.0675467-.5304211.0299853-.7597298-.1043886l-4.15-2.42-3.23-1.87-1.26-.74c-.9554526-.5550462-1.2800462-1.7795474-.725-2.735s1.7795474-1.2800462 2.735-.725l1.26.73v.01l3.27 1.9 4.11 2.39c.4774157.2785014.6423004.8890205.37 1.37z" fill="#67b9cc"/></g></g></svg>