<?xml version="1.0" encoding="iso-8859-1"?>
<svg version="1.1" xmlns="http://www.w3.org/2000/svg" xmlns:xlink="http://www.w3.org/1999/xlink" x="0px" y="0px"
	 viewBox="0 0 512 512" style="enable-background:new 0 0 512 512;" xml:space="preserve">
<path style="fill:#555656;" d="M455.906,260.371c0,106.188-88.533,192.75-197.978,192.75c-33.648-0.077-66.738-8.596-96.246-24.769
	C99.46,395.347,60.405,330.812,60.036,260.371c0-106.188,88.619-192.321,197.892-192.321c18.067-0.026,36.065,2.391,53.48,7.199
	C395.862,97.232,455.083,173.106,455.906,260.371z"/>
<path style="fill:#717272;" d="M413.054,243.23c0,106.188-88.533,192.75-197.978,192.75c-18.058-0.12-36.022-2.683-53.394-7.628
	C99.46,395.347,60.405,330.812,60.036,260.371c0-106.188,88.619-192.321,197.892-192.321c18.067-0.026,36.065,2.391,53.48,7.199
	C373.647,108.245,412.702,172.789,413.054,243.23z"/>
<g>
	<path style="fill:#A8A5A4;" d="M59.865,260.285v4.285c0,4.371-7.113,5.914-16.198,3.514l-28.197-7.371
		c-9.085-2.4-9.085-6.342,0-8.57l28.968-7.628c9.085-2.4,16.112,1.8,15.427,9.256C59.865,253.772,59.865,260.285,59.865,260.285z"/>
	<path style="fill:#A8A5A4;" d="M468.248,267.742c-9.085,2.4-16.37,0.771-16.113-3.514v-10.885
		c-0.6-7.456,6.342-11.656,15.427-9.256l28.968,7.628c9.085,2.4,9.085,6.342,0,8.57L468.248,267.742z"/>
	<path style="fill:#A8A5A4;" d="M281.669,110.902c2.28,6.471-1.114,13.567-7.593,15.847c-1.526,0.54-3.137,0.771-4.748,0.694
		h-35.482c-6.839,0.54-12.821-4.577-13.361-11.416c-0.137-1.74,0.094-3.48,0.677-5.125l6.856-25.711l8.57-33.082l10.799-36.682
		c2.485-9.085,6.514-9.085,8.57,0l9.77,36.082l8.57,33.082L281.669,110.902z"/>
	<path style="fill:#A8A5A4;" d="M153.111,151.355c6.128,2.88,8.759,10.182,5.871,16.31c-0.754,1.611-1.851,3.034-3.214,4.174
		l-24.597,24.169c-4.628,5.322-12.693,5.879-18.015,1.243c-1.183-1.028-2.16-2.263-2.897-3.642l-12.084-20.398l-17.141-29.568
		l-21.169-35.739c-4.799-8.142-1.971-10.97,6.171-6.256l32.054,18.255l29.825,17.141L153.111,151.355z"/>
	<path style="fill:#A8A5A4;" d="M440.994,101.732c8.57-4.628,10.97-1.8,6.171,6.256l-18.684,31.711l-17.141,29.568l-14.313,24.34
		c-3.24,6.265-10.944,8.725-17.21,5.485c-1.483-0.763-2.794-1.817-3.874-3.085l-24.854-24.512
		c-5.185-4.345-5.871-12.076-1.517-17.269c1.14-1.363,2.571-2.46,4.174-3.214l28.625-16.284l29.825-17.141L440.994,101.732z"/>
	<path style="fill:#A8A5A4;" d="M269.327,384.557c6.856-0.343,12.693,4.937,13.036,11.793c0.077,1.611-0.154,3.222-0.694,4.748
		l-9.17,34.882l-8.57,33.082l-7.971,27.511c-2.485,9.085-6.514,9.085-8.57,0l-7.628-28.025l-8.57-33.082l-9.342-34.282
		c-2.323-6.462,1.028-13.576,7.491-15.898c1.448-0.523,2.974-0.763,4.508-0.728H269.327z"/>
	<path style="fill:#A8A5A4;" d="M156.025,340.162c5.142,4.397,5.751,12.136,1.354,17.278c-1.166,1.371-2.623,2.46-4.268,3.205
		l-30.597,17.141L92.69,394.927l-26.654,15.341c-8.57,4.628-10.97,1.8-6.171-6.256l18.427-31.282l17.141-29.568l14.827-24.769
		c3.308-6.231,11.039-8.605,17.27-5.297c1.38,0.737,2.623,1.714,3.642,2.897L156.025,340.162z"/>
	<path style="fill:#A8A5A4;" d="M447.164,404.098c4.799,8.142,1.971,10.97-6.171,6.256l-23.654-13.456l-29.825-17.141
		l-34.282-19.284c-6.128-2.88-8.759-10.182-5.871-16.31c0.754-1.611,1.851-3.034,3.214-4.174l25.369-23.997
		c4.705-5.254,12.77-5.708,18.032-1.011c1.183,1.063,2.16,2.331,2.88,3.754l17.141,28.882l17.141,29.568L447.164,404.098z"/>
</g>
<path d="M51.466,277.426c-3.3-0.051-6.582-0.514-9.77-1.371l-28.197-7.371C2.271,265.77,0.043,260.2,0.043,256
	c0-4.2,2.314-9.77,13.199-12.599l28.968-7.628c6.839-2.323,14.39-1.174,20.226,3.085c4.294,3.668,6.505,9.213,5.914,14.827v10.884
	c0.06,3.711-1.62,7.233-4.542,9.513C60.182,276.552,55.837,277.726,51.466,277.426z M32.611,256l13.199,3.428
	c1.791,0.497,3.625,0.788,5.485,0.857v-8.142l0,0c-1.543-0.437-3.171-0.437-4.714,0L32.611,256z"/>
<path d="M460.363,277.426c-4.414,0.214-8.768-1.088-12.341-3.685c-3.025-2.417-4.688-6.162-4.457-10.027v-10.37
	c-0.317-5.365,1.903-10.567,5.999-14.056c5.759-4.405,13.319-5.717,20.226-3.514l28.968,7.628
	c10.97,2.828,13.199,8.57,13.199,12.599s-2.314,9.77-13.199,12.599l-28.283,7.456C467.176,276.946,463.783,277.409,460.363,277.426z
	 M460.363,263.799L460.363,263.799c0.086,0,0.171,0,0.257,0H460.363z M462.42,252.315c-0.677-0.189-1.38-0.189-2.057,0
	c0,0,0,0.686,0,0.943v6.942c1.826-0.077,3.642-0.368,5.399-0.857l0,0l13.199-3.428l-13.97-3.685c-0.788-0.171-1.594-0.257-2.4-0.257
	L462.42,252.315z"/>
<path d="M267.956,461.691c-4.731,0.163-8.699-3.54-8.862-8.271c-0.026-0.857,0.069-1.706,0.291-2.528l15.855-57.765h-47.309
	l15.341,56.651c0.746,2.725,0.111,5.639-1.714,7.799c-1.817,2.151-4.568,3.274-7.371,3c-51.346-5.202-98.792-29.705-132.757-68.564
	c-3.12-3.557-2.768-8.973,0.797-12.093c0.446-0.386,0.926-0.728,1.431-1.02l50.566-28.625l-33.425-32.825L94.404,362.36
	c-1.543,2.605-4.345,4.2-7.371,4.2c-2.974-0.103-5.716-1.637-7.371-4.114c-16.412-27.254-26.029-58.065-28.025-89.819
	c0-4.114,0-8.57,0-12.341c-0.129-7.156,0.154-14.304,0.857-21.426c3.188-30.245,13.396-59.333,29.825-84.933
	c1.663-2.443,4.414-3.917,7.371-3.942c2.965,0.06,5.691,1.646,7.199,4.2l23.912,40.538l33.425-32.996l-45.424-25.711
	c-4.114-2.34-5.562-7.568-3.222-11.682c0.343-0.609,0.771-1.174,1.251-1.688c33.022-34.719,77.186-56.745,124.786-62.222
	c4.705-0.549,8.956,2.811,9.505,7.516c0.129,1.097,0.043,2.211-0.249,3.282l-12.941,47.652h47.309l-13.199-48.595
	c-0.746-2.683-0.137-5.562,1.628-7.713c1.766-2.125,4.44-3.274,7.199-3.085c50.163,3.342,97.326,25.103,132.414,61.107
	c3.368,3.325,3.402,8.75,0.077,12.119c-0.506,0.514-1.08,0.96-1.706,1.337l-48.766,27.683l33.425,32.825l26.14-44.481
	c2.528-4.002,7.825-5.194,11.827-2.657c1.071,0.677,1.98,1.586,2.657,2.657c17.835,26.543,28.977,57.002,32.482,88.79
	c0.814,7.139,1.217,14.321,1.2,21.512c0,4.2,0,8.57-0.429,12.599c-2.023,33.356-12.496,65.65-30.425,93.847
	c-1.603,2.503-4.397,3.994-7.371,3.942c-2.965-0.06-5.691-1.646-7.199-4.2l-28.882-49.023l-33.425,32.739l53.823,30.682
	c4.122,2.331,5.571,7.559,3.24,11.682c-0.309,0.548-0.677,1.054-1.097,1.517c-36.082,40.058-86.553,64.184-140.384,67.107
	L267.956,461.691z M216.533,375.987h69.764c4.731-0.163,8.699,3.54,8.862,8.271c0.026,0.857-0.069,1.706-0.291,2.528l-15.255,56.308
	c41.241-4.894,79.663-23.415,109.188-52.623l-54.165-30.854c-4.062-2.425-5.391-7.688-2.965-11.75
	c0.394-0.66,0.874-1.26,1.423-1.791l49.366-48.509c3.394-3.3,8.819-3.231,12.119,0.163c0.48,0.497,0.9,1.046,1.251,1.637
	l26.997,45.852c12.033-22.755,19.052-47.832,20.569-73.535c0-3.857,0-7.628,0-11.313c0.009-6.531-0.368-13.053-1.114-19.541
	c-2.648-24.512-10.293-48.226-22.455-69.678l-24.512,41.652c-2.4,4.08-7.645,5.451-11.733,3.051
	c-0.591-0.351-1.148-0.771-1.637-1.251l-48.852-48.68c-3.36-3.334-3.385-8.759-0.06-12.119c0.548-0.557,1.174-1.037,1.86-1.423
	l48.423-27.597c-28.274-25.694-63.756-42.09-101.646-46.966l12.856,47.395c1.234,4.568-1.474,9.273-6.042,10.507
	c-0.823,0.223-1.68,0.317-2.528,0.291h-69.249c-4.731,0.163-8.699-3.54-8.862-8.271c-0.026-0.857,0.069-1.706,0.291-2.528
	l12.427-45.852c-34.89,6.565-67.201,22.917-93.161,47.138l45.424,25.711c4.114,2.34,5.562,7.568,3.222,11.682
	c-0.386,0.677-0.866,1.303-1.423,1.86l-49.366,48.509c-3.394,3.3-8.819,3.231-12.119-0.163c-0.48-0.497-0.9-1.046-1.251-1.637
	l-22.026-37.367c-10.816,20.269-17.595,42.45-19.969,65.307c-0.754,6.514-1.123,13.07-1.114,19.626c0,3.771,0,7.542,0,11.227
	c1.491,24.023,7.756,47.506,18.427,69.078l24.34-41.31c2.4-4.08,7.645-5.451,11.733-3.051c0.591,0.351,1.148,0.771,1.637,1.251
	l49.366,48.509c3.36,3.334,3.385,8.759,0.06,12.119c-0.548,0.557-1.174,1.037-1.86,1.423l-51.423,29.054
	c27.52,28.008,63.182,46.606,101.903,53.137l-14.913-54.937c-1.234-4.568,1.474-9.273,6.042-10.507
	c0.823-0.223,1.68-0.317,2.528-0.291L216.533,375.987z"/>
<path d="M269.327,136.013h-35.482c-11.587,0.403-21.315-8.665-21.709-20.261c-0.086-2.4,0.249-4.791,0.968-7.079l25.711-95.475
	c3-10.884,8.57-13.199,12.77-13.199l0,0c4.371,0,9.856,2.314,12.941,13.199l25.711,95.475c3.514,11.056-2.597,22.857-13.653,26.371
	C274.247,135.791,271.787,136.116,269.327,136.013z M251.586,31.625l-22.112,81.505c-0.986,1.997-0.171,4.414,1.826,5.399
	c0.788,0.394,1.68,0.514,2.545,0.343h35.482c2.185,0.42,4.294-1.011,4.714-3.197c0.163-0.866,0.043-1.757-0.343-2.545l0,0
	L251.586,31.625z"/>
<path d="M121.486,209.12h-2.657c-6.762-1.011-12.684-5.091-16.027-11.056l-50.394-85.705c-5.742-9.77-3.428-15.341-0.514-18.341
	c2.914-3,8.57-5.399,18.341,0l87.333,49.709l0,0c10.293,5.134,14.476,17.638,9.35,27.931c-1.2,2.417-2.863,4.568-4.894,6.351
	l-24.854,24.426C133.022,206.634,127.391,209.042,121.486,209.12z M74.777,116.473l42.852,72.763
	c0.797,2.228,3.248,3.394,5.477,2.597c0.831-0.3,1.56-0.848,2.065-1.568l24.854-24.512c1.8-1.14,2.331-3.531,1.183-5.322
	c-0.497-0.771-1.251-1.346-2.125-1.62L74.777,116.473z"/>
<path d="M385.543,209.12c-5.905-0.077-11.536-2.485-15.684-6.685l-24.854-24.512c-8.639-7.593-9.487-20.749-1.894-29.388
	c1.783-2.023,3.934-3.685,6.351-4.894l87.333-49.709c9.856-5.571,15.341-3.171,18.341,0s5.228,8.57-0.514,18.341l-50.394,85.705
	c-3.334,5.974-9.256,10.062-16.027,11.056L385.543,209.12z M432.252,116.473l-74.306,42.338c-2.04,0.626-3.18,2.777-2.563,4.817
	c0.266,0.883,0.84,1.637,1.62,2.125l24.854,24.512c1.363,1.937,4.037,2.4,5.974,1.037c0.728-0.514,1.277-1.234,1.568-2.065
	L432.252,116.473z"/>
<path d="M251.586,512c-4.2,0-9.77-2.314-12.77-13.113l-25.711-95.561c-3.514-11.056,2.605-22.857,13.661-26.371
	c2.288-0.728,4.679-1.054,7.079-0.968h35.482c11.587-0.497,21.383,8.493,21.88,20.081c0.103,2.46-0.223,4.919-0.968,7.259
	l-25.711,95.475C261.442,509.686,255.957,512,251.586,512z M233.845,393.128c-2.185-0.42-4.294,1.011-4.714,3.197
	c-0.163,0.866-0.043,1.757,0.343,2.545l22.112,81.505l22.112-81.505c0.986-1.997,0.171-4.414-1.826-5.399
	c-0.788-0.394-1.68-0.514-2.545-0.343H233.845z"/>
<path d="M59.693,421.153c-2.897,0.06-5.691-1.088-7.713-3.171c-2.914-3-5.228-8.57,0.514-18.341l50.394-85.705
	c5.597-10.37,18.538-14.253,28.908-8.656c1.997,1.08,3.814,2.468,5.374,4.114l24.512,24.597c8.639,7.593,9.488,20.749,1.894,29.388
	c-1.783,2.023-3.934,3.685-6.351,4.894l-86.99,49.537C67.064,419.807,63.439,420.964,59.693,421.153z M121.572,319.936
	L121.572,319.936c-1.5,0.343-2.76,1.354-3.428,2.743l-42.852,72.678l74.306-42.338c2.04-0.626,3.18-2.777,2.563-4.817
	c-0.266-0.883-0.84-1.637-1.62-2.125l0,0l-24.854-24.512c-1.114-1.097-2.64-1.663-4.2-1.543L121.572,319.936z"/>
<path d="M447.336,421.153c-3.771-0.18-7.431-1.328-10.627-3.342l-87.333-49.709c-10.293-5.134-14.476-17.638-9.35-27.931
	c1.2-2.417,2.863-4.568,4.894-6.351l24.854-24.512c8.099-8.562,21.606-8.93,30.168-0.831c1.646,1.56,3.034,3.377,4.114,5.374
	l50.394,85.705c5.742,9.685,3.428,15.341,0.514,18.341C452.975,419.987,450.215,421.162,447.336,421.153z M385.543,320.021
	c-1.388,0.111-2.674,0.754-3.6,1.8l-24.854,24.512c-1.8,1.14-2.331,3.531-1.183,5.322c0.497,0.771,1.251,1.346,2.125,1.62
	l74.306,42.338l-42.852-72.763c-0.668-1.388-1.928-2.4-3.428-2.743L385.543,320.021z"/>
<ellipse style="fill:#BDBDBD;" cx="251.586" cy="256" rx="34.882" ry="34.282"/>
<path d="M251.586,298.852c-23.663-0.334-42.578-19.781-42.252-43.452s19.781-42.578,43.452-42.252
	c23.432,0.326,42.252,19.412,42.252,42.844c0,23.663-19.181,42.852-42.852,42.852C251.989,298.852,251.783,298.852,251.586,298.852z
	 M251.586,230.289c-14.193,0.334-25.437,12.11-25.103,26.303c0.334,14.193,12.11,25.437,26.303,25.103
	c13.961-0.326,25.111-11.733,25.111-25.694c0-14.201-11.502-25.711-25.703-25.72C251.989,230.28,251.792,230.28,251.586,230.289z"/>
<rect x="68.649" y="247.43" width="148.183" height="17.141"/>
<rect x="290.239" y="247.43" width="153.069" height="17.141"/>
<rect x="243.016" y="127.443" width="17.141" height="94.275"/>
<rect x="243.016" y="290.282" width="17.141" height="94.275"/>
</svg>
