<svg xmlns="http://www.w3.org/2000/svg" viewBox="0 0 512 512"><path d="M117.333 0h277.333C459.468 0 512 52.532 512 117.333v277.333C512 459.468 459.468 512 394.667 512H117.333C52.532 512 0 459.468 0 394.667V117.333C0 52.532 52.532 0 117.333 0z" fill="#faebd7"/><path d="M336.448 247.019l-149.333-96c-4.951-3.193-11.552-1.768-14.745 3.183a10.667 10.667 0 00-1.703 5.799v192c-.01 5.891 4.758 10.674 10.649 10.684 2.057.003 4.07-.588 5.799-1.703l149.333-96c4.96-3.178 6.405-9.776 3.227-14.736a10.658 10.658 0 00-3.227-3.227z" fill="#928483"/><path d="M330.667 362.667c-5.891 0-10.667-4.776-10.667-10.667V160c0-5.891 4.776-10.667 10.667-10.667s10.667 4.776 10.667 10.667v192c-.001 5.891-4.776 10.667-10.667 10.667z" fill="#928483"/></svg>