<svg xmlns="http://www.w3.org/2000/svg" viewBox="0 0 512 512"><path d="M117.333 0h277.333C459.468 0 512 52.532 512 117.333v277.333C512 459.468 459.468 512 394.667 512H117.333C52.532 512 0 459.468 0 394.667V117.333C0 52.532 52.532 0 117.333 0z" fill="#faebd7"/><path d="M160 149.333h64c5.891 0 10.667 4.776 10.667 10.667v192c0 5.891-4.776 10.667-10.667 10.667h-64c-5.891 0-10.667-4.776-10.667-10.667V160c0-5.891 4.776-10.667 10.667-10.667zM288 149.333h64c5.891 0 10.667 4.776 10.667 10.667v192c0 5.891-4.776 10.667-10.667 10.667h-64c-5.891 0-10.667-4.776-10.667-10.667V160c0-5.891 4.776-10.667 10.667-10.667z" fill="#928483"/></svg>