<?xml version="1.0" encoding="iso-8859-1"?>
<svg version="1.1" xmlns="http://www.w3.org/2000/svg" xmlns:xlink="http://www.w3.org/1999/xlink" x="0px" y="0px"
	 viewBox="0 0 512 512" style="enable-background:new 0 0 512 512;" xml:space="preserve">
<path style="fill:#faebd7;" d="M420.032,511.333c-3.668,1.626-7.963,0.189-9.915-3.316c-5.806-10.418-19.114-30.677-37.303-36.232
	c-17.18-5.246-24.664-4.466-38.254-3.047c-8.421,0.878-18.903,1.97-34.609,1.97c-36.937,0-57.28-28.576-57.28-80.464h15.489
	c0,18.774,3.018,34.454,8.729,45.346c6.926,13.207,17.741,19.628,33.062,19.628c14.901,0,24.937-1.047,33.002-1.888
	c14.575-1.518,24.201-2.522,44.384,3.64c23.478,7.17,39.419,31.083,46.322,43.488C425.88,504.451,424.208,509.481,420.032,511.333
	L420.032,511.333z"/>
<path style="fill:#faebd7;" d="M87.356,165.828C87.356,74.244,161.6,0,253.186,0s165.828,74.244,165.828,165.828
	c0,123.309-74.244,216.853-165.828,216.853S87.356,282.05,87.356,165.828z"/>
<path style="fill:#faebd7;" d="M312.046,359.963c-91.584,0-165.828-100.631-165.828-216.853c0-59.245,31.075-111.225,77.809-140.553
	C146.347,16.338,87.357,84.194,87.357,165.828c0,116.222,74.244,216.853,165.828,216.853c27.712,0,53.83-8.578,76.791-23.94
	C324.085,359.542,318.104,359.963,312.046,359.963z"/>
<path style="fill:#faebd7;" d="M221.72,402.972h61.512c7.029,0,12.726-5.698,12.726-12.726l0,0c0-7.029-5.698-12.726-12.726-12.726
	H221.72c-7.029,0-12.726,5.698-12.726,12.726l0,0C208.994,397.273,214.692,402.972,221.72,402.972z"/>
<path style="fill:#faebd7;" d="M239.75,390.244c0-7.029,5.698-12.726,12.726-12.726H221.72c-7.029,0-12.726,5.698-12.726,12.726
	s5.698,12.726,12.726,12.726h30.756C245.448,402.97,239.75,397.273,239.75,390.244z"/>
<circle style="fill:#faebd7;" cx="332.374" cy="112.454" r="32.012"/>
</svg>
