<?xml version="1.0" encoding="iso-8859-1"?>
<svg version="1.1" xmlns="http://www.w3.org/2000/svg" xmlns:xlink="http://www.w3.org/1999/xlink" x="0px" y="0px"
	 viewBox="0 0 512 512" style="enable-background:new 0 0 512 512;" xml:space="preserve">
<path style="fill:#faebd7;" d="M245.333,512c-5.891,0-10.667-4.776-10.667-10.667c0.69-10.543,4.675-20.602,11.392-28.757
	c5.876-6.907,9.363-15.527,9.941-24.576c0-7.808-9.771-14.933-19.2-21.973c-11.541-8.533-23.467-17.301-23.467-31.36
	c0.849-11.946,5.95-23.193,14.379-31.701c3.093-3.84,6.955-8.533,6.955-10.965c0-5.891,4.776-10.667,10.667-10.667
	c5.891,0,10.667,4.776,10.667,10.667c-0.951,9.232-5.084,17.845-11.691,24.363c-5.123,4.888-8.509,11.315-9.643,18.304
	c0,3.285,8.896,9.856,14.763,14.187c12.437,9.173,27.904,20.565,27.904,39.147c-0.491,13.328-5.264,26.142-13.611,36.544
	c-4.169,4.715-6.856,10.555-7.723,16.789C256,507.224,251.224,512,245.333,512z"/>
<path style="fill:#faebd7;" d="M295.552,344.448l-32-32c-4.165-4.164-10.917-4.164-15.083,0l-32,32
	c-4.171,4.16-4.179,10.914-0.019,15.085c2.001,2.006,4.717,3.133,7.55,3.134h64c5.891,0.011,10.675-4.757,10.686-10.648
	C298.691,349.179,297.563,346.454,295.552,344.448z"/>
<path style="fill:#faebd7;" d="M256,0c-82.436,0.094-149.239,66.898-149.333,149.333c0,84.075,90.368,181.333,149.333,181.333
	s149.333-97.259,149.333-181.333C405.239,66.898,338.436,0.094,256,0z"/>
<path style="fill:#faebd7;" d="M160,160c-5.891,0-10.667-4.776-10.667-10.667C149.404,90.452,197.119,42.737,256,42.667
	c5.891,0,10.667,4.776,10.667,10.667S261.891,64,256,64c-47.128,0-85.333,38.205-85.333,85.333C170.667,155.224,165.891,160,160,160
	z"/>
</svg>
