<?xml version="1.0" encoding="iso-8859-1"?>
<svg version="1.1" xmlns="http://www.w3.org/2000/svg" xmlns:xlink="http://www.w3.org/1999/xlink" x="0px" y="0px"
	 viewBox="0 0 512 512" style="enable-background:new 0 0 512 512;" xml:space="preserve">
<path fill="#d0d8dc" d="M64,0h384c35.346,0,64,28.654,64,64v384c0,35.346-28.654,64-64,64H64c-35.346,0-64-28.654-64-64V64
	C0,28.654,28.654,0,64,0z"/>
<path fill="#627c8b" d="M132.992,146.56c-4.021-3.002-9.426-3.378-13.824-0.96c-4.48,2.516-7.229,7.278-7.168,12.416
	v195.968c-0.054,5.136,2.693,9.895,7.168,12.416c4.398,2.418,9.803,2.042,13.824-0.96l133.312-97.984
	c6.327-4.789,7.574-13.801,2.784-20.128c-0.796-1.051-1.733-1.988-2.784-2.784L132.992,146.56z"/>
<path fill="#627c8b" d="M389.344,144h-42.688c-6.711,1.099-11.392,7.255-10.656,14.016v195.968
	c-0.736,6.761,3.945,12.917,10.656,14.016h42.688c6.711-1.099,11.392-7.255,10.656-14.016V158.016
	C400.736,151.255,396.055,145.099,389.344,144z"/>
<path fill="#627c8b" d="M112,384c-8.837,0-16-7.163-16-16V144c-0.01-8.837,7.145-16.008,15.982-16.018c3.293-0.004,6.506,1.008,9.202,2.898l160,112
	c7.246,5.058,9.02,15.032,3.962,22.278c-1.077,1.543-2.419,2.885-3.962,3.962l-160,112C118.491,383,115.284,384.005,112,384z
	 M128,174.72v162.56L244.096,256L128,174.72z"/>
<path fill="#627c8b" d="M400,384h-64c-8.837,0-16-7.163-16-16V144c0-8.837,7.163-16,16-16h64c8.837,0,16,7.163,16,16v224
	C416,376.837,408.837,384,400,384z M352,352h32V160h-32V352z"/>
</svg>
