<?xml version="1.0" encoding="iso-8859-1"?>
<svg version="1.1" xmlns="http://www.w3.org/2000/svg" xmlns:xlink="http://www.w3.org/1999/xlink" x="0px" y="0px"
	 viewBox="0 0 512 512" style="enable-background:new 0 0 512 512;" xml:space="preserve">
<path style="fill:#CFD8DC;" d="M117.333,0h277.333C459.468,0,512,52.532,512,117.333v277.333C512,459.468,459.468,512,394.667,512
	H117.333C52.532,512,0,459.468,0,394.667V117.333C0,52.532,52.532,0,117.333,0z"/>
<path style="fill:#607D8B;" d="M160,149.333h64c5.891,0,10.667,4.776,10.667,10.667v192c0,5.891-4.776,10.667-10.667,10.667h-64
	c-5.891,0-10.667-4.776-10.667-10.667V160C149.333,154.109,154.109,149.333,160,149.333z"/>
<path style="fill:#607D8B;" d="M288,149.333h64c5.891,0,10.667,4.776,10.667,10.667v192c0,5.891-4.776,10.667-10.667,10.667h-64
	c-5.891,0-10.667-4.776-10.667-10.667V160C277.333,154.109,282.109,149.333,288,149.333z"/>
</svg>
