<?xml version="1.0" encoding="iso-8859-1"?>
<svg version="1.1" xmlns="http://www.w3.org/2000/svg" xmlns:xlink="http://www.w3.org/1999/xlink" x="0px" y="0px"
	 viewBox="0 0 512 512" style="enable-background:new 0 0 512 512;" xml:space="preserve">
<path fill="#d0d8dc" d="M64,0h384c35.346,0,64,28.654,64,64v384c0,35.346-28.654,64-64,64H64c-35.346,0-64-28.654-64-64V64
	C0,28.654,28.654,0,64,0z"/>
<path fill="#627c8b" d="M148.032,144H204c7.741,0,14.016,6.275,14.016,14.016v195.968c0,7.741-6.275,14.016-14.016,14.016
	h-55.968c-7.741,0-14.016-6.275-14.016-14.016V158.016C134.016,150.275,140.291,144,148.032,144z"/>
<path fill="#627c8b" d="M308.032,144H364c7.741,0,14.016,6.275,14.016,14.016v195.968c0,7.741-6.275,14.016-14.016,14.016
	h-55.968c-7.741,0-14.016-6.275-14.016-14.016V158.016C294.016,150.275,300.291,144,308.032,144z"/>
<path fill="#627c8b" d="M208,384h-64c-8.837,0-16-7.163-16-16V144c0-8.837,7.163-16,16-16h64c8.837,0,16,7.163,16,16v224
	C224,376.837,216.837,384,208,384z M160,352h32V160h-32V352z"/>
<path fill="#627c8b" d="M368,384h-64c-8.837,0-16-7.163-16-16V144c0-8.837,7.163-16,16-16h64c8.837,0,16,7.163,16,16v224
	C384,376.837,376.837,384,368,384z M320,352h32V160h-32V352z"/>
</svg>
