<?xml version="1.0" encoding="iso-8859-1"?>
<!-- Generator: Adobe Illustrator 19.0.0, SVG Export Plug-In . SVG Version: 6.00 Build 0)  -->
<svg version="1.1" id="Capa_1" xmlns="http://www.w3.org/2000/svg" xmlns:xlink="http://www.w3.org/1999/xlink" x="0px" y="0px"
	 viewBox="0 0 512 512" style="enable-background:new 0 0 512 512;" xml:space="preserve">
<path style="fill:#CFD8DC;" d="M117.333,0h277.333C459.468,0,512,52.532,512,117.333v277.333C512,459.468,459.468,512,394.667,512
	H117.333C52.532,512,0,459.468,0,394.667V117.333C0,52.532,52.532,0,117.333,0z"/>
<path style="fill:#607D8B;" d="M357.781,247.019l-149.333-96c-4.951-3.193-11.552-1.768-14.745,3.183
	c-1.115,1.728-1.706,3.742-1.703,5.799v192c-0.01,5.891,4.758,10.674,10.649,10.684c2.057,0.003,4.07-0.588,5.799-1.703l149.333-96
	c4.96-3.178,6.405-9.776,3.227-14.736C360.178,248.95,359.077,247.849,357.781,247.019L357.781,247.019z"/>
<g>
</g>
<g>
</g>
<g>
</g>
<g>
</g>
<g>
</g>
<g>
</g>
<g>
</g>
<g>
</g>
<g>
</g>
<g>
</g>
<g>
</g>
<g>
</g>
<g>
</g>
<g>
</g>
<g>
</g>
</svg>
